<svg xmlns="http://www.w3.org/2000/svg" id="レイヤー_1" x="0" y="0" version="1.1" viewBox="0 0 256 256" xml:space="preserve"><style>.st0{fill:#00a9d9}</style><path d="M128.7 173.7c0-10.2-14.6-15-32.6-15H66.2c-9.3 0-16.8 7.5-16.8 16.8V200h15.2c5.9 0 10.6-4.7 10.6-10.6v-.7h11.6l12 9.4c1.6 1.3 3.7 2 5.7 2h26.2l-17.6-13c9.3-2.3 15.6-6.7 15.6-13.4zm-34.9 4.6H75.2v-8.2h18.7c5 0 8.6 1.1 8.6 4.1s-3.6 4.1-8.7 4.1zM134.1 200h13c7.2 0 13-5.8 13-13h26.2c6.3 0 11.5-5.1 11.5-11.5h-35.3c-1.3.1-2.5-.9-2.6-2.3-.1-1.3.9-2.5 2.3-2.6H194.1c6.6 0 11.9-5.3 11.9-11.9h-71.9V200zM118 78.5c0-7.6.9-15.1 2.8-22.5H12C6.5 56 2 60.5 2 66s4.5 10 10 10h41.7c5.4-.1 9.9 4 10.3 9.3.4 5.5-3.8 10.3-9.3 10.6H21c-5.5 0-10 4.5-10 10s4.5 10 10 10h41.7c5.4-.1 9.9 4 10.3 9.3.4 5.5-3.8 10.3-9.3 10.6H34c-5.5 0-10 4.5-10 10s4.5 10 10 10h126.9C134.2 139.3 118 110 118 78.5z" class="st0"/><path d="M175.6 56H127c-11 40.2 8.6 82.5 46.4 100h2.2c34.6 0 63.4-19.3 79.4-50-16-30.7-44.7-50-79.4-50zm29.9 62c-6.9 0-12.5-5.6-12.5-12.5S198.6 93 205.5 93c2.5 0 4.9.8 7 2.2-.5-.1-1-.2-1.5-.2-3.9 0-7 3.1-7 7s3.1 7 7 7c3.3 0 6.1-2.3 6.8-5.5.1.7.2 1.3.2 2 0 6.9-5.6 12.5-12.5 12.5z" class="st0"/></svg>